<svg width="32" height="37" viewBox="0 0 32 37" fill="#000000" xmlns="http://www.w3.org/2000/svg">
    <path
        d="M26.7633 23.3452V15.354C26.7633 14.1543 26.2841 13.003 25.4128 12.1783C24.3913 11.2117 22.9742 9.9076 21.8301 8.99426C19.666 7.26658 18.5859 5.85498 16.0001 5.85498C13.4142 5.85498 12.3341 7.26658 10.17 8.99426C9.0259 9.9076 7.60877 11.2117 6.58735 12.1783C5.716 13.003 5.23682 14.1543 5.23682 15.354V23.3452C5.23682 24.8313 6.44153 25.6378 7.92763 25.6378H11.7639C12.3162 25.6378 12.7639 25.1901 12.7639 24.6378V20.3006V19.3398C12.7639 17.529 14.2319 16.061 16.0428 16.061C17.8536 16.061 19.3216 17.529 19.3216 19.3398V20.3006V24.6378C19.3216 25.1901 19.7693 25.6378 20.3216 25.6378H24.0725C25.5586 25.6378 26.7633 24.8313 26.7633 23.3452Z"
        stroke="#000000" stroke-width="3" />
</svg>
